<svg width="30" height="15" viewBox="0 0 30 15" fill="none" xmlns="http://www.w3.org/2000/svg">
<path d="M2.38214 4.10553C2.38214 3.33087 3.01012 2.70289 3.78478 2.70289H23.071C23.8457 2.70289 24.4737 3.33087 24.4737 4.10553V10.7681C24.4737 11.5427 23.8457 12.1707 23.071 12.1707H3.78478C3.01012 12.1707 2.38214 11.5427 2.38214 10.7681V4.10553Z" fill="white"/>
<path opacity="0.4" d="M23.0711 0.598934C25.0077 0.599005 26.5779 2.16918 26.5779 4.10577V10.7679C26.5779 12.7045 25.0077 14.2746 23.0711 14.2747H3.78497C1.84834 14.2747 0.278137 12.7045 0.278137 10.7679V4.10577C0.278137 2.16913 1.84834 0.598934 3.78497 0.598934H23.0711ZM3.78497 1.65069C2.42933 1.65069 1.3299 2.75013 1.3299 4.10577V10.7679C1.3299 12.1235 2.42933 13.223 3.78497 13.223H23.0711C24.4267 13.2229 25.5252 12.1235 25.5252 10.7679V4.10577C25.5252 2.75017 24.4267 1.65076 23.0711 1.65069H3.78497ZM27.6297 5.221C28.6344 5.45883 29.3826 6.35948 29.3826 7.43682C29.3825 8.5141 28.6343 9.4138 27.6297 9.65167V5.221Z" fill="white"/>
</svg>
