<svg width="21" height="13" viewBox="0 0 21 13" fill="none" xmlns="http://www.w3.org/2000/svg">
<path d="M3.26477 7.31216C3.92919 7.31234 4.46777 7.85085 4.4679 8.51528V11.5241C4.4679 12.1886 3.92927 12.727 3.26477 12.7272H2.06067C1.39615 12.727 0.857544 12.1886 0.857544 11.5241V8.51528C0.857671 7.85083 1.39623 7.31232 2.06067 7.31216H3.26477ZM8.79016 5.50649C9.39419 5.50673 9.88391 5.99713 9.88391 6.60122V11.6334C9.88391 12.2375 9.39419 12.727 8.79016 12.7272H7.36731C6.76314 12.7271 6.27356 12.2376 6.27356 11.6334V6.60122C6.27356 5.99704 6.76314 5.50657 7.36731 5.50649H8.79016ZM14.2052 3.10024C14.8094 3.10024 15.2999 3.58976 15.2999 4.19399V11.6334C15.2999 12.2377 14.8094 12.7272 14.2052 12.7272H12.7833C12.1791 12.7272 11.6896 12.2377 11.6896 11.6334V4.19399C11.6896 3.58977 12.1791 3.10025 12.7833 3.10024H14.2052ZM19.6202 0.693016C20.2244 0.693016 20.7138 1.18268 20.714 1.78677V11.6334C20.714 12.2377 20.2245 12.7272 19.6202 12.7272H18.1984C17.5941 12.7272 17.1036 12.2377 17.1036 11.6334V1.78677C17.1038 1.18268 17.5942 0.693016 18.1984 0.693016H19.6202Z" fill="white"/>
</svg>
