<svg width="20" height="15" viewBox="0 0 20 15" fill="none" xmlns="http://www.w3.org/2000/svg">
<path d="M9.9621 3.55271C12.8194 3.55283 15.5674 4.65718 17.6382 6.63749C17.7941 6.79038 18.0434 6.78845 18.197 6.63317L19.6876 5.11996C19.7653 5.0412 19.8087 4.93452 19.8081 4.82352C19.8074 4.71251 19.7628 4.60635 19.6841 4.52851C14.249 -0.710924 5.67436 -0.710924 0.239191 4.52851C0.160459 4.60629 0.115787 4.71242 0.115061 4.82343C0.114335 4.93443 0.157615 5.04114 0.235323 5.11996L1.72636 6.63317C1.87984 6.78868 2.12928 6.79061 2.28512 6.63749C4.35618 4.65705 7.10453 3.5527 9.9621 3.55271ZM9.9621 8.47582C11.532 8.47572 13.0459 9.06267 14.2096 10.1226C14.367 10.2731 14.6149 10.2698 14.7683 10.1153L16.2572 8.60207C16.3356 8.52269 16.3791 8.41502 16.378 8.30313C16.3769 8.19124 16.3312 8.08448 16.2512 8.00673C12.7075 4.69101 7.21969 4.69101 3.67601 8.00673C3.59597 8.08448 3.5503 8.19129 3.54925 8.30322C3.5482 8.41514 3.59185 8.52281 3.67043 8.60207L5.15888 10.1153C5.31231 10.2698 5.56025 10.2731 5.71765 10.1226C6.88057 9.06337 8.39324 8.47647 9.9621 8.47582ZM12.8234 12.0872C12.903 12.0086 12.9469 11.9004 12.9446 11.7882C12.9423 11.676 12.8941 11.5697 12.8114 11.4945C11.1666 10.0951 8.75762 10.0951 7.11283 11.4945C7.03003 11.5697 6.98174 11.6759 6.97938 11.7881C6.97702 11.9003 7.0208 12.0085 7.10037 12.0872L9.67627 14.7016C9.75177 14.7784 9.8547 14.8217 9.9621 14.8217C10.0695 14.8217 10.1724 14.7784 10.2479 14.7016L12.8234 12.0872Z" fill="white"/>
</svg>
