<svg width="31" height="40" viewBox="0 0 31 40" fill="none" xmlns="http://www.w3.org/2000/svg">
<path d="M30.1659 16.7789C30.4929 16.3697 30.6711 15.8614 30.6711 15.3376C30.6711 14.8137 30.4929 14.3055 30.1659 13.8962C30.055 13.7573 29.984 13.5909 29.9605 13.4147C29.937 13.2386 29.9619 13.0593 30.0325 12.8962C30.2438 12.4162 30.2851 11.8786 30.1496 11.3719C30.0141 10.8653 29.7099 10.42 29.2872 10.1096C29.1439 10.0039 29.0322 9.86117 28.964 9.6967C28.8959 9.53222 28.8739 9.35227 28.9005 9.17624V9.15491C28.9744 8.63957 28.8717 8.1144 28.6091 7.66484C28.3466 7.21528 27.9397 6.86779 27.4545 6.67891C27.2883 6.61282 27.1433 6.50255 27.0352 6.36002C26.9271 6.21749 26.86 6.04813 26.8412 5.87024C26.7842 5.35399 26.5544 4.87214 26.1892 4.50283C25.824 4.13351 25.3448 3.89839 24.8292 3.83557H24.8019C24.6249 3.81462 24.4569 3.74583 24.3161 3.63659C24.1752 3.52735 24.0668 3.3818 24.0025 3.21557C23.8145 2.73006 23.4674 2.32266 23.0179 2.0599C22.5685 1.79714 22.0432 1.69456 21.5279 1.76891H21.5052C21.3291 1.79551 21.1491 1.77349 20.9846 1.70522C20.8201 1.63696 20.6774 1.52505 20.5719 1.38157C20.2604 0.959186 19.8144 0.655482 19.3072 0.520487C18.8001 0.385492 18.2621 0.427258 17.7819 0.638905C17.618 0.710612 17.4376 0.736095 17.2603 0.712592C17.0829 0.689088 16.9154 0.617495 16.7759 0.505572C16.3668 0.178299 15.8584 0 15.3345 0C14.8106 0 14.3023 0.178299 13.8932 0.505572C13.7545 0.616839 13.588 0.688074 13.4118 0.711575C13.2355 0.735075 13.0562 0.709946 12.8932 0.638905C12.4131 0.428514 11.8756 0.387689 11.3692 0.523136C10.8628 0.658583 10.4175 0.962246 10.1065 1.38424C10.0005 1.52709 9.85768 1.6385 9.69332 1.7066C9.52895 1.77469 9.3492 1.79691 9.1732 1.77091H9.15187C8.63659 1.69766 8.11169 1.80062 7.66226 2.06309C7.21284 2.32555 6.86525 2.73214 6.67586 3.21691C6.61073 3.38324 6.50143 3.52863 6.35974 3.63742C6.21806 3.74621 6.04937 3.81426 5.87186 3.83424C5.35554 3.89059 4.87338 4.1197 4.50358 4.48442C4.13378 4.84913 3.89802 5.32807 3.83453 5.84357V5.8709C3.81399 6.04765 3.74575 6.21548 3.63712 6.35641C3.52849 6.49733 3.38356 6.60605 3.21786 6.67091C2.73264 6.85933 2.32553 7.2065 2.06283 7.65587C1.80013 8.10524 1.69734 8.63032 1.7712 9.14557V9.16824C1.79743 9.34432 1.77524 9.52421 1.707 9.68864C1.63877 9.85306 1.52706 9.99581 1.38386 10.1016C0.961191 10.412 0.656999 10.8573 0.521495 11.3639C0.385991 11.8706 0.427274 12.4082 0.638531 12.8882C0.710386 13.0521 0.735949 13.2325 0.712442 13.4099C0.688934 13.5872 0.617255 13.7548 0.505198 13.8942C0.178153 14.3035 0 14.8117 0 15.3356C0 15.8594 0.178153 16.3677 0.505198 16.7769C0.616066 16.9158 0.687048 17.0823 0.710536 17.2584C0.734025 17.4346 0.709134 17.6138 0.638531 17.7769C0.427274 18.2569 0.385991 18.7946 0.521495 19.3012C0.656999 19.8078 0.961191 20.2531 1.38386 20.5636C1.52716 20.6692 1.6389 20.812 1.70704 20.9764C1.77518 21.1409 1.79713 21.3209 1.77053 21.4969V21.5182C1.69643 22.0336 1.79902 22.5589 2.0616 23.0085C2.32417 23.4581 2.73126 23.8055 3.21653 23.9942C3.38286 24.0594 3.52826 24.1687 3.63704 24.3104C3.74583 24.452 3.81388 24.6207 3.83386 24.7982C3.8909 25.3145 4.12064 25.7963 4.48585 26.1656C4.85105 26.535 5.33029 26.7701 5.84586 26.8329H5.8732C6.04994 26.8534 6.21777 26.9217 6.3587 27.0303C6.49963 27.1389 6.60834 27.2839 6.6732 27.4496C6.85228 27.9037 7.17062 28.2895 7.58253 28.5516L5.3712 36.8036C5.31868 36.9978 5.32271 37.203 5.38282 37.395C5.44294 37.5871 5.55663 37.7579 5.71053 37.8876C5.86612 38.0208 6.05669 38.1066 6.2596 38.1347C6.46251 38.1628 6.66923 38.1321 6.8552 38.0462L10.3219 36.4462L12.5219 39.5536C12.6193 39.693 12.749 39.8067 12.8999 39.8852C13.0508 39.9637 13.2184 40.0045 13.3885 40.0042C13.4538 40.0041 13.5189 39.9983 13.5832 39.9869C13.7826 39.9526 13.9679 39.8616 14.1169 39.7248C14.266 39.588 14.3725 39.4113 14.4239 39.2156L15.3359 35.8296L16.2439 39.2136C16.2951 39.4096 16.4016 39.5868 16.5508 39.724C16.7 39.8611 16.8855 39.9524 17.0852 39.9869C17.1497 39.9983 17.215 40.0041 17.2805 40.0042C17.4505 40.0044 17.618 39.9635 17.7689 39.8852C17.9197 39.8069 18.0495 39.6934 18.1472 39.5542L20.3472 36.4462L23.8239 38.0509C24.0091 38.1352 24.2147 38.1648 24.4162 38.1361C24.6177 38.1074 24.8068 38.0216 24.9612 37.8889C25.1153 37.7591 25.2291 37.588 25.2891 37.3957C25.3491 37.2034 25.3528 36.9979 25.2999 36.8036L23.0905 28.5609C23.5018 28.2988 23.8197 27.9133 23.9985 27.4596C24.0637 27.2932 24.173 27.1478 24.3147 27.0391C24.4563 26.9303 24.625 26.8622 24.8025 26.8422C25.3188 26.7852 25.8006 26.5555 26.1699 26.1903C26.5393 25.8251 26.7744 25.3458 26.8372 24.8302V24.8029C26.8577 24.6262 26.926 24.4583 27.0346 24.3174C27.1432 24.1765 27.2882 24.0678 27.4539 24.0029C27.9391 23.8145 28.3462 23.4673 28.6089 23.0179C28.8716 22.5686 28.9744 22.0435 28.9005 21.5282V21.5056C28.8743 21.3295 28.8965 21.1496 28.9647 20.9852C29.033 20.8208 29.1447 20.678 29.2879 20.5722C29.7105 20.2618 30.0147 19.8165 30.1502 19.3099C30.2857 18.8033 30.2445 18.2656 30.0332 17.7856C29.9616 17.6229 29.9358 17.4438 29.9586 17.2676C29.9814 17.0913 30.0519 16.9247 30.1625 16.7856L30.1659 16.7789ZM13.2859 38.3216L11.2859 35.4962C11.1406 35.2928 10.929 35.1464 10.6875 35.0822C10.446 35.0179 10.1896 35.0399 9.96253 35.1442L6.80253 36.6036L8.86186 28.9229C8.95588 28.9232 9.04982 28.9178 9.1432 28.9069H9.16586C9.34194 28.8807 9.52184 28.9029 9.68626 28.9711C9.85069 29.0393 9.99343 29.151 10.0992 29.2942C10.4099 29.7166 10.8552 30.0206 11.3617 30.1561C11.8682 30.2915 12.4058 30.2505 12.8859 30.0396C13.0497 29.9674 13.2301 29.9417 13.4076 29.9652C13.585 29.9887 13.7525 30.0606 13.8919 30.1729C14.3029 30.4976 14.8121 30.6729 15.3359 30.6702H15.3432L13.2859 38.3216ZM20.7092 35.1449C20.4821 35.0395 20.2252 35.017 19.9832 35.0813C19.7412 35.1457 19.5294 35.2927 19.3845 35.4969L17.3845 38.3216L16.0259 33.2602L16.8725 30.1096C17.0062 30.0241 17.1588 29.9726 17.3169 29.9596C17.4751 29.9466 17.634 29.9725 17.7799 30.0349C18.2599 30.2459 18.7975 30.2871 19.3041 30.1516C19.8106 30.0161 20.2559 29.7121 20.5665 29.2896C20.6717 29.1457 20.8144 29.0335 20.979 28.9654C21.1436 28.8972 21.3238 28.8755 21.4999 28.9029H21.5212C21.6155 28.9138 21.7103 28.9192 21.8052 28.9189L23.8692 36.6036L20.7092 35.1449ZM29.1205 15.9509C28.8588 16.2799 28.6918 16.6741 28.6374 17.091C28.583 17.5079 28.6433 17.9317 28.8119 18.3169C28.9013 18.5205 28.9186 18.7486 28.8609 18.9634C28.8032 19.1781 28.6739 19.3668 28.4945 19.4982C28.1595 19.7457 27.8975 20.0791 27.7364 20.4632C27.5752 20.8473 27.5209 21.2678 27.5792 21.6802V21.7016C27.6128 21.9214 27.5703 22.1461 27.459 22.3386C27.3476 22.5311 27.1739 22.6798 26.9665 22.7602C26.5792 22.9121 26.24 23.1657 25.9847 23.4942C25.7293 23.8227 25.5674 24.214 25.5159 24.6269V24.6529C25.4914 24.8744 25.3923 25.0809 25.2347 25.2384C25.0772 25.396 24.8707 25.4951 24.6492 25.5196C24.2314 25.567 23.8345 25.7274 23.5011 25.9836C23.1677 26.2398 22.9105 26.5821 22.7572 26.9736C22.6769 27.1809 22.5281 27.3546 22.3356 27.4659C22.1431 27.5772 21.9183 27.6194 21.6985 27.5856H21.6779C21.2653 27.5267 20.8445 27.5807 20.4601 27.7418C20.0758 27.903 19.7423 28.1653 19.4952 28.5009C19.3634 28.68 19.1745 28.8089 18.9597 28.8664C18.7448 28.9238 18.5168 28.9064 18.3132 28.8169C17.9277 28.6483 17.5035 28.5883 17.0864 28.6433C16.6693 28.6983 16.2751 28.8662 15.9465 29.1289C15.7727 29.2683 15.5566 29.3442 15.3339 29.3442C15.1111 29.3442 14.895 29.2683 14.7212 29.1289C14.3922 28.8671 13.998 28.7001 13.5811 28.6457C13.1642 28.5913 12.7403 28.6516 12.3552 28.8202C12.1515 28.9095 11.9235 28.9267 11.7088 28.869C11.494 28.8114 11.3054 28.6822 11.1739 28.5029C10.9271 28.1671 10.5938 27.9045 10.2095 27.7433C9.82522 27.5821 9.40436 27.5283 8.99186 27.5876H8.97053C8.75075 27.6206 8.52625 27.578 8.33388 27.4667C8.14151 27.3554 7.9927 27.1819 7.91186 26.9749C7.75999 26.5875 7.50642 26.2483 7.1779 25.993C6.84938 25.7377 6.45806 25.5758 6.0452 25.5242H6.0192C5.79774 25.4998 5.59121 25.4007 5.43366 25.2431C5.27611 25.0856 5.17696 24.879 5.15253 24.6576C5.10512 24.2398 4.94467 23.8429 4.68848 23.5095C4.43228 23.1761 4.09002 22.9189 3.69853 22.7656C3.49132 22.685 3.31777 22.5362 3.20651 22.3438C3.09525 22.1513 3.05293 21.9267 3.08653 21.7069V21.6862C3.14499 21.2737 3.09078 20.853 2.92964 20.4688C2.7685 20.0845 2.50644 19.751 2.1712 19.5036C1.99177 19.372 1.86264 19.1831 1.80517 18.9682C1.74771 18.7532 1.76536 18.5251 1.8552 18.3216C2.02355 17.9361 2.08347 17.5119 2.02849 17.0948C1.97351 16.6778 1.80571 16.2836 1.5432 15.9549C1.40429 15.7809 1.32864 15.5649 1.32864 15.3422C1.32864 15.1196 1.40429 14.9036 1.5432 14.7296C1.80491 14.4005 1.97194 14.0064 2.02633 13.5895C2.08072 13.1726 2.0204 12.7487 1.85186 12.3636C1.76246 12.1599 1.74518 11.9319 1.80287 11.7171C1.86057 11.5023 1.98979 11.3137 2.1692 11.1822C2.50427 10.9348 2.76623 10.6014 2.92736 10.2173C3.08849 9.83319 3.14279 9.41267 3.08453 9.00024V8.97891C3.05097 8.75907 3.09339 8.53436 3.20478 8.34188C3.31617 8.1494 3.48987 8.00067 3.6972 7.92024C4.08455 7.76836 4.42376 7.5148 4.67907 7.18627C4.93438 6.85775 5.09634 6.46643 5.14786 6.05357V6.02757C5.17229 5.80611 5.27145 5.59958 5.42899 5.44203C5.58654 5.28449 5.79307 5.18533 6.01453 5.1609C6.4323 5.11349 6.82923 4.95305 7.1626 4.69685C7.49598 4.44065 7.75318 4.09839 7.90653 3.7069C7.98738 3.49992 8.13622 3.32658 8.32861 3.21537C8.52099 3.10415 8.74548 3.06167 8.9652 3.0949H8.98586C9.39976 3.15468 9.82211 3.10092 10.2078 2.93935C10.5935 2.77779 10.9281 2.51449 11.1759 2.17757C11.3072 1.99785 11.4961 1.86849 11.7111 1.811C11.9261 1.75351 12.1544 1.77136 12.3579 1.86157C12.7433 2.03015 13.1675 2.09018 13.5847 2.0352C14.0018 1.98021 14.3959 1.81229 14.7245 1.54957C14.8985 1.41055 15.1145 1.33482 15.3372 1.33482C15.5599 1.33482 15.7759 1.41055 15.9499 1.54957C16.2788 1.81148 16.673 1.97864 17.0899 2.03304C17.5069 2.08743 17.9307 2.02699 18.3159 1.85824C18.5196 1.76933 18.7475 1.75231 18.9621 1.80997C19.1768 1.86763 19.3655 1.99655 19.4972 2.17557C19.7436 2.5118 20.0769 2.77462 20.4612 2.93587C20.8456 3.09712 21.2667 3.15071 21.6792 3.0909H21.7005C21.9204 3.05747 22.145 3.09994 22.3375 3.21131C22.5299 3.32269 22.6787 3.49631 22.7592 3.70357C22.9111 4.09093 23.1646 4.43014 23.4932 4.68545C23.8217 4.94076 24.213 5.10271 24.6259 5.15424H24.6519C24.8733 5.17866 25.0799 5.27782 25.2374 5.43537C25.3949 5.59292 25.4941 5.79944 25.5185 6.02091C25.5659 6.43867 25.7264 6.8356 25.9826 7.16898C26.2388 7.50235 26.581 7.75956 26.9725 7.91291C27.1797 7.99345 27.3533 8.14223 27.4646 8.3347C27.5758 8.52717 27.6181 8.75181 27.5845 8.97157V8.99224C27.5261 9.40478 27.5803 9.82546 27.7414 10.2097C27.9026 10.594 28.1646 10.9275 28.4999 11.1749C28.6793 11.3065 28.8084 11.4953 28.8659 11.7103C28.9234 11.9252 28.9057 12.1534 28.8159 12.3569C28.6475 12.7424 28.5876 13.1666 28.6426 13.5836C28.6976 14.0007 28.8654 14.3949 29.1279 14.7236C29.2661 14.8972 29.3413 15.1126 29.3413 15.3346C29.3413 15.5565 29.2661 15.7719 29.1279 15.9456L29.1205 15.9509Z" fill="#AE2F37"/>
<path d="M15.3358 4.00366C13.0943 4.00366 10.9031 4.66835 9.03932 5.91367C7.17556 7.159 5.72294 8.92902 4.86515 10.9999C4.00735 13.0708 3.78291 15.3496 4.22021 17.548C4.65751 19.7465 5.73691 21.7659 7.3219 23.3509C8.9069 24.9359 10.9263 26.0153 13.1248 26.4526C15.3232 26.8899 17.602 26.6654 19.6729 25.8076C21.7438 24.9498 23.5138 23.4972 24.7591 21.6335C26.0044 19.7697 26.6691 17.5785 26.6691 15.337C26.6658 12.3322 25.4706 9.45151 23.346 7.32682C21.2213 5.20214 18.3405 4.00701 15.3358 4.00366ZM15.3358 25.337C13.358 25.337 11.4246 24.7505 9.78008 23.6517C8.13559 22.5529 6.85386 20.9911 6.09698 19.1638C5.34011 17.3366 5.14207 15.3259 5.52793 13.3861C5.91378 11.4463 6.86619 9.66445 8.26471 8.26593C9.66324 6.8674 11.4451 5.91499 13.3849 5.52914C15.3247 5.14329 17.3354 5.34132 19.1626 6.0982C20.9899 6.85508 22.5517 8.1368 23.6505 9.78129C24.7493 11.4258 25.3358 13.3592 25.3358 15.337C25.3328 17.9882 24.2782 20.53 22.4035 22.4048C20.5288 24.2795 17.987 25.334 15.3358 25.337Z" fill="#AE2F37"/>
</svg>
