<svg width="40" height="40" viewBox="0 0 40 40" fill="none" xmlns="http://www.w3.org/2000/svg">
<path d="M20.9332 34.7012C20.3745 35.0996 19.6255 35.0996 19.0668 34.7012C11.019 28.9621 2.47595 17.1618 11.1112 8.63547C13.4686 6.30772 16.666 5 20 5C23.334 5 26.5314 6.30772 28.8888 8.63547C37.524 17.1618 28.981 28.9621 20.9332 34.7012Z" stroke="#AE2F37" stroke-width="1.5" stroke-linecap="round" stroke-linejoin="round"/>
<path d="M19.9998 19.9999C21.8408 19.9999 23.3332 18.5075 23.3332 16.6666C23.3332 14.8256 21.8408 13.3333 19.9998 13.3333C18.1589 13.3333 16.6665 14.8256 16.6665 16.6666C16.6665 18.5075 18.1589 19.9999 19.9998 19.9999Z" stroke="#AE2F37" stroke-width="1.5" stroke-linecap="round" stroke-linejoin="round"/>
</svg>
