<svg width="51" height="34" viewBox="0 0 51 34" fill="none" xmlns="http://www.w3.org/2000/svg">
<path d="M12.8541 8.50067C12.4862 7.83311 11.5138 7.83311 11.1459 8.50067C10.9456 8.86432 10.7534 9.23285 10.5695 9.60602C9.99049 10.7811 9.49446 12.0023 9.08879 13.2624C8.95002 13.6934 8.53768 13.9928 8.06577 14.0053C6.9521 14.0348 5.84047 14.1265 4.73814 14.2821C4.42331 14.3265 4.11016 14.3759 3.79877 14.4304C3.02451 14.5656 2.73398 15.4484 3.2838 15.9864C3.40922 16.1091 3.5357 16.2308 3.66323 16.3515C4.61689 17.2537 5.62918 18.0978 6.69404 18.8779C7.06131 19.1469 7.21228 19.6084 7.07191 20.0297C6.63214 21.3496 6.29178 22.713 6.05943 24.1116C6.01284 24.3921 5.97058 24.674 5.93274 24.9573C5.83193 25.7119 6.64048 26.2448 7.3423 25.885C7.59281 25.7566 7.84111 25.6247 8.08712 25.4893C9.21586 24.8679 10.2965 24.1736 11.3222 23.4128C11.7204 23.1175 12.2796 23.1175 12.6778 23.4128C13.7035 24.1736 14.7841 24.8679 15.9129 25.4893C16.1589 25.6247 16.4072 25.7566 16.6577 25.885C17.3595 26.2448 18.1681 25.7119 18.0673 24.9573C18.0294 24.674 17.9872 24.3921 17.9406 24.1116C17.7082 22.713 17.3679 21.3496 16.9281 20.0297C16.7877 19.6084 16.9387 19.1469 17.306 18.8779C18.3708 18.0978 19.3831 17.2537 20.3368 16.3515C20.4643 16.2308 20.5908 16.1091 20.7162 15.9864C21.266 15.4484 20.9755 14.5656 20.2012 14.4304C19.8898 14.3759 19.5767 14.3265 19.2619 14.2821C18.1595 14.1265 17.0479 14.0348 15.9342 14.0053C15.4623 13.9928 15.05 13.6934 14.9112 13.2624C14.5055 12.0023 14.0095 10.7811 13.4305 9.60602C13.2466 9.23285 13.0544 8.86432 12.8541 8.50067Z" fill="#F2BE3A"/>
<path d="M32.444 24V21.696H26.72V20.58L30.086 12.12H31.67L28.232 20.418H32.444V16.746H33.884V20.418H35.378V21.696H33.884V24H32.444ZM37.2783 24V21.894H38.8083V24H37.2783ZM44.4382 24.18C44.0782 24.18 43.6942 24.162 43.2862 24.126C42.8782 24.09 42.4882 24.048 42.1162 24C41.7442 23.952 41.4262 23.904 41.1622 23.856L41.3062 22.686C41.5462 22.71 41.8402 22.74 42.1882 22.776C42.5362 22.812 42.9082 22.842 43.3042 22.866C43.7002 22.89 44.0782 22.902 44.4382 22.902C45.5062 22.902 46.3042 22.572 46.8322 21.912C47.3722 21.24 47.6482 20.214 47.6602 18.834C47.3602 18.942 47.0302 19.05 46.6702 19.158C46.3102 19.266 45.9502 19.356 45.5902 19.428C45.2422 19.488 44.9182 19.518 44.6182 19.518C43.3702 19.518 42.4102 19.224 41.7382 18.636C41.0662 18.048 40.7302 17.13 40.7302 15.882C40.7302 15.066 40.8982 14.364 41.2342 13.776C41.5702 13.188 42.0442 12.738 42.6562 12.426C43.2802 12.102 44.0122 11.94 44.8522 11.94C45.8602 11.94 46.6762 12.192 47.3002 12.696C47.9362 13.188 48.4042 13.896 48.7042 14.82C49.0042 15.744 49.1542 16.836 49.1542 18.096C49.1542 19.248 49.0462 20.214 48.8302 20.994C48.6142 21.774 48.3022 22.398 47.8942 22.866C47.4982 23.334 47.0062 23.67 46.4182 23.874C45.8422 24.078 45.1822 24.18 44.4382 24.18ZM44.7442 18.24C45.0442 18.24 45.3742 18.204 45.7342 18.132C46.0942 18.06 46.4482 17.976 46.7962 17.88C47.1442 17.772 47.4382 17.676 47.6782 17.592C47.6662 16.74 47.5642 15.99 47.3722 15.342C47.1922 14.682 46.8982 14.166 46.4902 13.794C46.0822 13.41 45.5362 13.218 44.8522 13.218C44.0362 13.218 43.3882 13.458 42.9082 13.938C42.4402 14.418 42.2062 15.066 42.2062 15.882C42.2062 16.698 42.4222 17.298 42.8542 17.682C43.2862 18.054 43.9162 18.24 44.7442 18.24Z" fill="black"/>
</svg>
