<svg width="170" height="52" viewBox="0 0 170 52" fill="none" xmlns="http://www.w3.org/2000/svg">
<rect width="170" height="52" rx="24" fill="#601A1E"/>
<path d="M43.3978 33.166C43.3978 34.03 43.1818 34.672 42.7498 35.092C42.3178 35.524 41.6038 35.74 40.6078 35.74C40.4038 35.74 40.2118 35.722 40.0318 35.686C39.8398 35.65 39.7138 35.62 39.6538 35.596C39.5818 35.56 39.5458 35.494 39.5458 35.398V34.732C39.5458 34.636 39.5818 34.558 39.6538 34.498C39.7258 34.45 39.8098 34.426 39.9058 34.426H40.6078C41.0878 34.426 41.3998 34.324 41.5438 34.12C41.6878 33.928 41.7598 33.61 41.7598 33.166V19.468C41.7598 19.372 41.7898 19.294 41.8498 19.234C41.9218 19.162 42.0058 19.126 42.1018 19.126H43.0558C43.1518 19.126 43.2298 19.162 43.2898 19.234C43.3618 19.294 43.3978 19.372 43.3978 19.468V33.166ZM53.7088 28.234C53.7088 28.894 53.6248 29.494 53.4568 30.034C53.2888 30.574 53.0368 31.036 52.7008 31.42C52.3648 31.804 51.9448 32.104 51.4408 32.32C50.9368 32.524 50.3548 32.626 49.6948 32.626C49.0348 32.626 48.4528 32.524 47.9488 32.32C47.4568 32.104 47.0428 31.804 46.7068 31.42C46.3708 31.036 46.1188 30.574 45.9508 30.034C45.7828 29.494 45.6988 28.894 45.6988 28.234V26.866C45.6988 26.206 45.7828 25.606 45.9508 25.066C46.1188 24.526 46.3708 24.064 46.7068 23.68C47.0428 23.296 47.4568 23.002 47.9488 22.798C48.4528 22.582 49.0348 22.474 49.6948 22.474C50.3548 22.474 50.9368 22.582 51.4408 22.798C51.9448 23.002 52.3648 23.296 52.7008 23.68C53.0368 24.064 53.2888 24.526 53.4568 25.066C53.6248 25.606 53.7088 26.206 53.7088 26.866V28.234ZM52.1248 26.866C52.1248 25.942 51.9328 25.21 51.5488 24.67C51.1648 24.13 50.5468 23.86 49.6948 23.86C48.8548 23.86 48.2428 24.13 47.8588 24.67C47.4748 25.198 47.2828 25.93 47.2828 26.866V28.234C47.2828 29.158 47.4688 29.89 47.8408 30.43C48.2248 30.97 48.8428 31.24 49.6948 31.24C50.5348 31.24 51.1468 30.976 51.5308 30.448C51.9268 29.908 52.1248 29.17 52.1248 28.234V26.866ZM57.6494 20.656C57.6494 20.752 57.6134 20.836 57.5414 20.908C57.4694 20.98 57.3854 21.016 57.2894 21.016H56.3714C56.2754 21.016 56.1914 20.98 56.1194 20.908C56.0474 20.836 56.0114 20.752 56.0114 20.656V19.216C56.0114 19.12 56.0474 19.036 56.1194 18.964C56.1914 18.892 56.2754 18.856 56.3714 18.856H57.2894C57.3854 18.856 57.4694 18.892 57.5414 18.964C57.6134 19.036 57.6494 19.12 57.6494 19.216V20.656ZM57.6134 32.14C57.6134 32.236 57.5774 32.32 57.5054 32.392C57.4334 32.464 57.3494 32.5 57.2534 32.5H56.3894C56.2934 32.5 56.2094 32.464 56.1374 32.392C56.0654 32.32 56.0294 32.236 56.0294 32.14V22.96C56.0294 22.864 56.0654 22.78 56.1374 22.708C56.2094 22.636 56.2934 22.6 56.3894 22.6H57.2534C57.3494 22.6 57.4334 22.636 57.5054 22.708C57.5774 22.78 57.6134 22.864 57.6134 22.96V32.14ZM67.8567 32.14C67.8567 32.236 67.8207 32.32 67.7487 32.392C67.6767 32.464 67.5927 32.5 67.4967 32.5H66.6327C66.5367 32.5 66.4527 32.464 66.3807 32.392C66.3087 32.32 66.2727 32.236 66.2727 32.14V26.218C66.2727 25.762 66.2307 25.384 66.1467 25.084C66.0747 24.772 65.9547 24.526 65.7867 24.346C65.6307 24.166 65.4267 24.04 65.1747 23.968C64.9227 23.884 64.6287 23.842 64.2927 23.842C63.9087 23.842 63.5127 23.908 63.1047 24.04C62.6967 24.172 62.2827 24.34 61.8627 24.544V32.14C61.8627 32.236 61.8267 32.32 61.7547 32.392C61.6827 32.464 61.5987 32.5 61.5027 32.5H60.6207C60.5247 32.5 60.4407 32.464 60.3687 32.392C60.3087 32.32 60.2787 32.236 60.2787 32.14V22.96C60.2787 22.864 60.3087 22.78 60.3687 22.708C60.4407 22.636 60.5247 22.6 60.6207 22.6H61.5207C61.6167 22.6 61.6947 22.636 61.7547 22.708C61.8267 22.78 61.8627 22.864 61.8627 22.96V23.302C62.3667 23.026 62.8347 22.822 63.2667 22.69C63.6987 22.546 64.1847 22.474 64.7247 22.474C65.8167 22.474 66.6087 22.798 67.1007 23.446C67.6047 24.094 67.8567 25.018 67.8567 26.218V32.14ZM84.0875 27.64C84.0875 29.356 83.6795 30.616 82.8635 31.42C82.0595 32.224 80.9315 32.626 79.4795 32.626C78.0155 32.626 76.8815 32.224 76.0775 31.42C75.2735 30.616 74.8715 29.356 74.8715 27.64V19.468C74.8715 19.372 74.9015 19.294 74.9615 19.234C75.0335 19.162 75.1175 19.126 75.2135 19.126H76.1855C76.2815 19.126 76.3595 19.162 76.4195 19.234C76.4915 19.294 76.5275 19.372 76.5275 19.468V27.64C76.5275 28.216 76.5755 28.732 76.6715 29.188C76.7675 29.632 76.9295 30.004 77.1575 30.304C77.3975 30.604 77.7035 30.832 78.0755 30.988C78.4475 31.144 78.9155 31.222 79.4795 31.222C80.0315 31.222 80.4935 31.144 80.8655 30.988C81.2495 30.832 81.5555 30.604 81.7835 30.304C82.0235 30.004 82.1915 29.632 82.2875 29.188C82.3835 28.744 82.4315 28.228 82.4315 27.64V19.468C82.4315 19.372 82.4615 19.294 82.5215 19.234C82.5935 19.162 82.6775 19.126 82.7735 19.126H83.7455C83.8415 19.126 83.9195 19.162 83.9795 19.234C84.0515 19.294 84.0875 19.372 84.0875 19.468V27.64ZM92.9275 30.016C92.9275 30.472 92.8435 30.868 92.6755 31.204C92.5195 31.528 92.2915 31.798 91.9915 32.014C91.7035 32.218 91.3495 32.374 90.9295 32.482C90.5215 32.578 90.0655 32.626 89.5615 32.626C89.3935 32.626 89.1895 32.62 88.9495 32.608C88.7215 32.608 88.4755 32.596 88.2115 32.572C87.9595 32.548 87.7015 32.524 87.4375 32.5C87.1735 32.464 86.9335 32.416 86.7175 32.356C86.4655 32.296 86.3395 32.176 86.3395 31.996V31.366C86.3395 31.282 86.3695 31.216 86.4295 31.168C86.4895 31.12 86.5675 31.096 86.6635 31.096H86.7355C86.9515 31.12 87.1855 31.144 87.4375 31.168C87.7015 31.192 87.9655 31.216 88.2295 31.24C88.4935 31.252 88.7395 31.264 88.9675 31.276C89.1955 31.288 89.3935 31.294 89.5615 31.294C90.1495 31.294 90.5935 31.204 90.8935 31.024C91.1935 30.844 91.3435 30.508 91.3435 30.016C91.3435 29.74 91.2475 29.5 91.0555 29.296C90.8635 29.092 90.5095 28.834 89.9935 28.522L88.1755 27.442C87.6235 27.106 87.1795 26.74 86.8435 26.344C86.5075 25.936 86.3395 25.444 86.3395 24.868C86.3395 24.4 86.4235 24.016 86.5915 23.716C86.7595 23.404 86.9875 23.158 87.2755 22.978C87.5635 22.786 87.9055 22.654 88.3015 22.582C88.6975 22.51 89.1295 22.474 89.5975 22.474C90.1015 22.474 90.5875 22.498 91.0555 22.546C91.5355 22.582 91.9855 22.636 92.4055 22.708C92.6335 22.744 92.7475 22.864 92.7475 23.068V23.662C92.7475 23.866 92.6455 23.968 92.4415 23.968H92.3875C92.0755 23.944 91.6555 23.914 91.1275 23.878C90.6115 23.842 90.1015 23.824 89.5975 23.824C89.0935 23.824 88.6855 23.884 88.3735 24.004C88.0735 24.124 87.9235 24.412 87.9235 24.868C87.9235 25.144 88.0255 25.384 88.2295 25.588C88.4335 25.78 88.7455 25.996 89.1655 26.236L90.9475 27.298C91.6915 27.742 92.2075 28.174 92.4955 28.594C92.7835 29.014 92.9275 29.488 92.9275 30.016Z" fill="white"/>
<path d="M110.5 26H125.5M125.5 26L119.875 20M125.5 26L119.875 32" stroke="white" stroke-width="1.5" stroke-linecap="round" stroke-linejoin="round"/>
</svg>
