<svg width="170" height="52" viewBox="0 0 170 52" fill="none" xmlns="http://www.w3.org/2000/svg">
<rect x="0.5" y="0.5" width="169" height="51" rx="23.5" stroke="#C21C32"/>
<path d="M61.3978 33.166C61.3978 34.03 61.1818 34.672 60.7498 35.092C60.3178 35.524 59.6038 35.74 58.6078 35.74C58.4038 35.74 58.2118 35.722 58.0318 35.686C57.8398 35.65 57.7138 35.62 57.6538 35.596C57.5818 35.56 57.5458 35.494 57.5458 35.398V34.732C57.5458 34.636 57.5818 34.558 57.6538 34.498C57.7258 34.45 57.8098 34.426 57.9058 34.426H58.6078C59.0878 34.426 59.3998 34.324 59.5438 34.12C59.6878 33.928 59.7598 33.61 59.7598 33.166V19.468C59.7598 19.372 59.7898 19.294 59.8498 19.234C59.9218 19.162 60.0058 19.126 60.1018 19.126H61.0558C61.1518 19.126 61.2298 19.162 61.2898 19.234C61.3618 19.294 61.3978 19.372 61.3978 19.468V33.166ZM71.7088 28.234C71.7088 28.894 71.6248 29.494 71.4568 30.034C71.2888 30.574 71.0368 31.036 70.7008 31.42C70.3648 31.804 69.9448 32.104 69.4408 32.32C68.9368 32.524 68.3548 32.626 67.6948 32.626C67.0348 32.626 66.4528 32.524 65.9488 32.32C65.4568 32.104 65.0428 31.804 64.7068 31.42C64.3708 31.036 64.1188 30.574 63.9508 30.034C63.7828 29.494 63.6988 28.894 63.6988 28.234V26.866C63.6988 26.206 63.7828 25.606 63.9508 25.066C64.1188 24.526 64.3708 24.064 64.7068 23.68C65.0428 23.296 65.4568 23.002 65.9488 22.798C66.4528 22.582 67.0348 22.474 67.6948 22.474C68.3548 22.474 68.9368 22.582 69.4408 22.798C69.9448 23.002 70.3648 23.296 70.7008 23.68C71.0368 24.064 71.2888 24.526 71.4568 25.066C71.6248 25.606 71.7088 26.206 71.7088 26.866V28.234ZM70.1248 26.866C70.1248 25.942 69.9328 25.21 69.5488 24.67C69.1648 24.13 68.5468 23.86 67.6948 23.86C66.8548 23.86 66.2428 24.13 65.8588 24.67C65.4748 25.198 65.2828 25.93 65.2828 26.866V28.234C65.2828 29.158 65.4688 29.89 65.8408 30.43C66.2248 30.97 66.8428 31.24 67.6948 31.24C68.5348 31.24 69.1468 30.976 69.5308 30.448C69.9268 29.908 70.1248 29.17 70.1248 28.234V26.866ZM75.6494 20.656C75.6494 20.752 75.6134 20.836 75.5414 20.908C75.4694 20.98 75.3854 21.016 75.2894 21.016H74.3714C74.2754 21.016 74.1914 20.98 74.1194 20.908C74.0474 20.836 74.0114 20.752 74.0114 20.656V19.216C74.0114 19.12 74.0474 19.036 74.1194 18.964C74.1914 18.892 74.2754 18.856 74.3714 18.856H75.2894C75.3854 18.856 75.4694 18.892 75.5414 18.964C75.6134 19.036 75.6494 19.12 75.6494 19.216V20.656ZM75.6134 32.14C75.6134 32.236 75.5774 32.32 75.5054 32.392C75.4334 32.464 75.3494 32.5 75.2534 32.5H74.3894C74.2934 32.5 74.2094 32.464 74.1374 32.392C74.0654 32.32 74.0294 32.236 74.0294 32.14V22.96C74.0294 22.864 74.0654 22.78 74.1374 22.708C74.2094 22.636 74.2934 22.6 74.3894 22.6H75.2534C75.3494 22.6 75.4334 22.636 75.5054 22.708C75.5774 22.78 75.6134 22.864 75.6134 22.96V32.14ZM85.8567 32.14C85.8567 32.236 85.8207 32.32 85.7487 32.392C85.6767 32.464 85.5927 32.5 85.4967 32.5H84.6327C84.5367 32.5 84.4527 32.464 84.3807 32.392C84.3087 32.32 84.2727 32.236 84.2727 32.14V26.218C84.2727 25.762 84.2307 25.384 84.1467 25.084C84.0747 24.772 83.9547 24.526 83.7867 24.346C83.6307 24.166 83.4267 24.04 83.1747 23.968C82.9227 23.884 82.6287 23.842 82.2927 23.842C81.9087 23.842 81.5127 23.908 81.1047 24.04C80.6967 24.172 80.2827 24.34 79.8627 24.544V32.14C79.8627 32.236 79.8267 32.32 79.7547 32.392C79.6827 32.464 79.5987 32.5 79.5027 32.5H78.6207C78.5247 32.5 78.4407 32.464 78.3687 32.392C78.3087 32.32 78.2787 32.236 78.2787 32.14V22.96C78.2787 22.864 78.3087 22.78 78.3687 22.708C78.4407 22.636 78.5247 22.6 78.6207 22.6H79.5207C79.6167 22.6 79.6947 22.636 79.7547 22.708C79.8267 22.78 79.8627 22.864 79.8627 22.96V23.302C80.3667 23.026 80.8347 22.822 81.2667 22.69C81.6987 22.546 82.1847 22.474 82.7247 22.474C83.8167 22.474 84.6087 22.798 85.1007 23.446C85.6047 24.094 85.8567 25.018 85.8567 26.218V32.14ZM102.087 27.64C102.087 29.356 101.679 30.616 100.863 31.42C100.059 32.224 98.9315 32.626 97.4795 32.626C96.0155 32.626 94.8815 32.224 94.0775 31.42C93.2735 30.616 92.8715 29.356 92.8715 27.64V19.468C92.8715 19.372 92.9015 19.294 92.9615 19.234C93.0335 19.162 93.1175 19.126 93.2135 19.126H94.1855C94.2815 19.126 94.3595 19.162 94.4195 19.234C94.4915 19.294 94.5275 19.372 94.5275 19.468V27.64C94.5275 28.216 94.5755 28.732 94.6715 29.188C94.7675 29.632 94.9295 30.004 95.1575 30.304C95.3975 30.604 95.7035 30.832 96.0755 30.988C96.4475 31.144 96.9155 31.222 97.4795 31.222C98.0315 31.222 98.4935 31.144 98.8655 30.988C99.2495 30.832 99.5555 30.604 99.7835 30.304C100.023 30.004 100.191 29.632 100.287 29.188C100.383 28.744 100.431 28.228 100.431 27.64V19.468C100.431 19.372 100.461 19.294 100.521 19.234C100.593 19.162 100.677 19.126 100.773 19.126H101.745C101.841 19.126 101.919 19.162 101.979 19.234C102.051 19.294 102.087 19.372 102.087 19.468V27.64ZM110.927 30.016C110.927 30.472 110.843 30.868 110.675 31.204C110.519 31.528 110.291 31.798 109.991 32.014C109.703 32.218 109.349 32.374 108.929 32.482C108.521 32.578 108.065 32.626 107.561 32.626C107.393 32.626 107.189 32.62 106.949 32.608C106.721 32.608 106.475 32.596 106.211 32.572C105.959 32.548 105.701 32.524 105.437 32.5C105.173 32.464 104.933 32.416 104.717 32.356C104.465 32.296 104.339 32.176 104.339 31.996V31.366C104.339 31.282 104.369 31.216 104.429 31.168C104.489 31.12 104.567 31.096 104.663 31.096H104.735C104.951 31.12 105.185 31.144 105.437 31.168C105.701 31.192 105.965 31.216 106.229 31.24C106.493 31.252 106.739 31.264 106.967 31.276C107.195 31.288 107.393 31.294 107.561 31.294C108.149 31.294 108.593 31.204 108.893 31.024C109.193 30.844 109.343 30.508 109.343 30.016C109.343 29.74 109.247 29.5 109.055 29.296C108.863 29.092 108.509 28.834 107.993 28.522L106.175 27.442C105.623 27.106 105.179 26.74 104.843 26.344C104.507 25.936 104.339 25.444 104.339 24.868C104.339 24.4 104.423 24.016 104.591 23.716C104.759 23.404 104.987 23.158 105.275 22.978C105.563 22.786 105.905 22.654 106.301 22.582C106.697 22.51 107.129 22.474 107.597 22.474C108.101 22.474 108.587 22.498 109.055 22.546C109.535 22.582 109.985 22.636 110.405 22.708C110.633 22.744 110.747 22.864 110.747 23.068V23.662C110.747 23.866 110.645 23.968 110.441 23.968H110.387C110.075 23.944 109.655 23.914 109.127 23.878C108.611 23.842 108.101 23.824 107.597 23.824C107.093 23.824 106.685 23.884 106.373 24.004C106.073 24.124 105.923 24.412 105.923 24.868C105.923 25.144 106.025 25.384 106.229 25.588C106.433 25.78 106.745 25.996 107.165 26.236L108.947 27.298C109.691 27.742 110.207 28.174 110.495 28.594C110.783 29.014 110.927 29.488 110.927 30.016Z" fill="#AE2F37"/>
</svg>
