<svg width="22" height="23" viewBox="0 0 22 23" fill="none" xmlns="http://www.w3.org/2000/svg">
<path d="M14.8053 7.8528L14.7778 7.82529C13.8786 6.92574 12.6879 6.37657 11.4199 6.27656C10.1519 6.17654 8.88977 6.53225 7.86061 7.2797C6.83145 8.02715 6.10276 9.11729 5.80561 10.354C5.50846 11.5908 5.66234 12.893 6.23958 14.0264L6.47467 14.4891L6.037 16.6149L6.03075 16.6424L8.1428 16.1422L8.62424 16.3861C9.62596 16.8837 10.7585 17.0548 11.8625 16.8754C12.9665 16.6959 13.9865 16.1749 14.7791 15.3857C15.776 14.3886 16.3383 13.0379 16.3435 11.628C16.3486 10.2181 15.7962 8.86334 14.8066 7.85905L14.8053 7.8528ZM14.5903 13.8201C14.3314 14.2277 13.9225 14.7254 13.4086 14.8492C12.5082 15.068 11.1264 14.8567 9.40704 13.2549L9.38578 13.2348C7.87395 11.8343 7.4813 10.6676 7.57634 9.74227C7.62886 9.21582 8.06653 8.74189 8.43542 8.43052C8.49384 8.381 8.563 8.34578 8.63741 8.32766C8.71182 8.30954 8.78943 8.30902 8.86408 8.32613C8.93873 8.34325 9.00836 8.37753 9.06745 8.42626C9.12653 8.47498 9.17344 8.53681 9.20446 8.60684L9.76092 9.86482C9.79736 9.94584 9.81091 10.0353 9.80011 10.1235C9.7893 10.2116 9.75456 10.2952 9.69965 10.365L9.41829 10.7301C9.35938 10.805 9.32381 10.8956 9.31603 10.9905C9.30824 11.0855 9.32859 11.1806 9.37452 11.2641C9.53208 11.5392 9.90973 11.9456 10.3286 12.3233C10.7988 12.7472 11.3203 13.1361 11.6504 13.2699C11.7389 13.3053 11.836 13.3136 11.9293 13.2938C12.0226 13.274 12.1078 13.2269 12.1743 13.1586L12.5007 12.8297C12.5637 12.7676 12.642 12.7233 12.7277 12.7013C12.8134 12.6794 12.9033 12.6805 12.9884 12.7046L14.3102 13.0798C14.3833 13.1021 14.4503 13.1409 14.506 13.1931C14.5618 13.2454 14.6049 13.3097 14.6319 13.3812C14.659 13.4527 14.6693 13.5294 14.6621 13.6055C14.6548 13.6815 14.6303 13.755 14.5903 13.8201Z" fill="#AE2F37"/>
<path d="M11 0.653687C8.82356 0.653687 6.69601 1.29907 4.88638 2.50823C3.07675 3.71738 1.66632 5.436 0.833438 7.44676C0.000556557 9.45751 -0.217363 11.6701 0.207236 13.8047C0.631835 15.9393 1.67988 17.9001 3.21885 19.439C4.75781 20.978 6.71857 22.026 8.85317 22.4506C10.9878 22.8752 13.2004 22.6573 15.2111 21.8244C17.2219 20.9915 18.9405 19.5811 20.1496 17.7715C21.3588 15.9619 22.0042 13.8343 22.0042 11.6579C22.0042 8.73939 20.8448 5.94043 18.7811 3.87674C16.7174 1.81305 13.9185 0.653687 11 0.653687ZM17.8188 11.8204C17.7819 12.9629 17.4587 14.0777 16.8787 15.0627C16.2987 16.0476 15.4806 16.8711 14.4994 17.4575C13.5183 18.0439 12.4056 18.3745 11.2634 18.4189C10.1213 18.4632 8.98625 18.22 7.96258 17.7114L4.51752 18.528C4.4653 18.5402 4.41063 18.5363 4.36066 18.5169C4.31068 18.4975 4.26773 18.4634 4.23741 18.4192C4.21695 18.3899 4.20273 18.3566 4.19563 18.3216C4.18853 18.2865 4.18871 18.2504 4.19614 18.2154L4.92017 14.7003C4.44791 13.773 4.19405 12.7499 4.178 11.7094C4.16195 10.6688 4.38414 9.63842 4.82757 8.69697C5.271 7.75552 5.92392 6.92798 6.73637 6.27768C7.54882 5.62738 8.49926 5.17155 9.51497 4.94507C10.5307 4.71859 11.5847 4.72746 12.5965 4.97101C13.6082 5.21456 14.5509 5.68632 15.3523 6.35021C16.1537 7.0141 16.7925 7.85251 17.2201 8.80129C17.6476 9.75007 17.8524 10.7841 17.8188 11.8242V11.8204Z" fill="#AE2F37"/>
</svg>
