<svg width="20" height="20" viewBox="0 0 20 20" fill="none" xmlns="http://www.w3.org/2000/svg">
<path d="M8.23256 0.405884C3.95573 0.405884 0.5 3.90606 0.5 8.20972C0.5 10.6795 1.48484 12.6061 3.37438 14.2806C4.6037 15.37 6.81202 17.6861 7.66664 19.088C7.78504 19.2822 7.99475 19.4021 8.22217 19.4057C8.44959 19.4093 8.66296 19.296 8.78738 19.1056C9.17858 18.5069 9.80384 17.7306 10.4863 16.9542C9.48038 15.8733 8.89535 14.5602 8.89535 12.9498C8.89535 12.2982 9.00097 11.6727 9.19578 11.0885C8.90162 11.1814 8.58847 11.2315 8.26363 11.2315C6.5554 11.2315 5.1706 9.84667 5.1706 8.13844C5.1706 6.43021 6.5554 5.04542 8.26363 5.04542C9.97186 5.04542 11.3566 6.43021 11.3566 8.13844L11.3566 8.16213C12.3433 7.45132 13.5561 7.03379 14.8605 7.03379C15.2113 7.03379 15.5556 7.064 15.8905 7.122C15.3664 3.33151 12.1426 0.405884 8.23256 0.405884Z" fill="#AE2F37"/>
<path fill-rule="evenodd" clip-rule="evenodd" d="M10.2209 12.9498C10.2209 10.4068 12.3059 8.35937 14.8605 8.35937C17.415 8.35937 19.5 10.4068 19.5 12.9498C19.5 14.4104 18.8968 15.5491 17.78 16.5168C17.1076 17.0994 15.9039 18.3746 15.4115 19.1114C15.2865 19.2985 15.075 19.4094 14.85 19.4058C14.625 19.4022 14.4171 19.2847 14.298 19.0938C13.841 18.3608 12.6254 17.1099 11.941 16.5168C10.8242 15.5491 10.2209 14.4104 10.2209 12.9498ZM13.093 12.9989C13.093 12.0228 13.882 11.2315 14.8552 11.2315H14.8657C15.839 11.2315 16.6279 12.0228 16.6279 12.9989C16.6279 13.975 15.839 14.7663 14.8657 14.7663H14.8552C13.882 14.7663 13.093 13.975 13.093 12.9989Z" fill="#AE2F37"/>
</svg>
