<svg width="20" height="20" viewBox="0 0 20 20" fill="none" xmlns="http://www.w3.org/2000/svg">
<path d="M5.24156 1.32268C4.99378 0.878155 4.59497 0.5417 4.0942 0.438198C3.5882 0.333616 3.07959 0.487883 2.66157 0.828583C1.14484 2.06478 0.179115 4.04538 0.598245 6.12313C0.855879 7.40029 1.2851 8.66043 2.15917 10.1845C3.91336 13.2433 6.65905 15.9905 9.72135 17.7467C11.2455 18.6208 12.5056 19.05 13.7828 19.3076C15.8605 19.7268 17.8411 18.761 19.0773 17.2443C19.418 16.8263 19.5723 16.3177 19.4677 15.8117C19.3642 15.3109 19.0277 14.9121 18.5832 14.6643L17.167 13.8749C16.6456 13.5843 16.2066 13.3396 15.8251 13.1798C15.4204 13.0103 15.0212 12.9096 14.58 12.9557C14.1387 13.0017 13.7689 13.1825 13.4078 13.4319C13.0675 13.667 12.6885 13.9969 12.2381 14.389L10.9053 15.5494C10.6665 15.7573 10.547 15.8613 10.3978 15.8708C10.2485 15.8803 10.121 15.795 9.86608 15.6246C7.69123 14.171 5.73373 12.2128 4.28131 10.0397C4.1109 9.78476 4.02569 9.65728 4.03519 9.50802C4.04469 9.35877 4.14865 9.23935 4.35658 9.00052L5.51687 7.66776C5.90896 7.2174 6.23893 6.83841 6.474 6.49803C6.72335 6.13697 6.9042 5.7672 6.95022 5.32592C6.99624 4.88464 6.89557 4.48551 6.72608 4.08077C6.56629 3.69922 6.32162 3.2603 6.03088 2.73875L5.24156 1.32268Z" fill="#AE2F37"/>
</svg>
