<svg width="20" height="17" viewBox="0 0 20 17" fill="none" xmlns="http://www.w3.org/2000/svg">
<path fill-rule="evenodd" clip-rule="evenodd" d="M12.5801 0.938325C10.8541 0.89507 9.14499 0.89507 7.41909 0.938325H7.36782C6.02015 0.972929 4.93586 0.998832 4.06716 1.1459C3.15693 1.30162 2.41721 1.59574 1.7933 2.20996C1.17116 2.82418 0.868954 3.53356 0.713419 4.41597C0.564954 5.24647 0.54286 6.28462 0.514581 7.56498V7.61685C0.49514 8.4733 0.49514 9.33847 0.514581 10.1949V10.2468C0.543744 11.5271 0.565817 12.5653 0.714282 13.3958C0.869817 14.2782 1.17211 14.9876 1.79425 15.6018C2.41816 16.216 3.15779 16.5101 4.06802 16.6659C4.93672 16.8129 6.0211 16.8388 7.36877 16.8734H7.41995C9.14586 16.9167 10.855 16.9167 12.5809 16.8734H12.6322C13.9799 16.8388 15.0641 16.8129 15.9328 16.6659C16.8431 16.5101 17.5828 16.216 18.2067 15.6018C18.8288 14.9876 19.131 14.2782 19.2866 13.3958C19.435 12.5653 19.4571 11.5271 19.4854 10.2468V10.1949C19.5049 9.33847 19.5049 8.4733 19.4854 7.61685V7.56498C19.4571 6.28462 19.435 5.24647 19.2866 4.41597C19.131 3.53356 18.8288 2.82418 18.2067 2.20996C17.5828 1.59574 16.8431 1.30162 15.9328 1.1459C15.0641 0.998832 13.9799 0.972929 12.6322 0.938325H12.5809H12.5801ZM5.91857 5.31571C5.60308 5.13404 5.19653 5.23787 5.01094 5.5493C4.82448 5.85209 4.92875 6.25002 5.24335 6.44034L7.84325 7.94565C8.61298 8.38686 9.27757 8.68961 9.99957 8.68961C10.7216 8.68961 11.3862 8.38686 12.1559 7.94565L14.7558 6.44034C15.0704 6.25002 15.1755 5.85209 14.9891 5.5493C14.8026 5.23787 14.3961 5.13404 14.0806 5.31571L11.4807 6.82102C10.7348 7.25357 10.338 7.39195 9.99957 7.39195C9.6611 7.39195 9.26433 7.25357 8.51847 6.82102L5.91857 5.31571Z" fill="#AE2F37"/>
</svg>
