<svg width="22" height="23" viewBox="0 0 22 23" fill="none" xmlns="http://www.w3.org/2000/svg">
<path d="M13.1062 11.9373C13.1062 13.1006 12.1632 14.0436 10.9999 14.0436C9.83668 14.0436 8.89368 13.1006 8.89368 11.9373C8.89368 10.7741 9.83668 9.83105 10.9999 9.83105C12.1632 9.83105 13.1062 10.7741 13.1062 11.9373Z" fill="#AE2F37"/>
<path d="M15.9256 8.21071C15.8243 7.93624 15.6628 7.68796 15.453 7.48413C15.2492 7.27423 15.0009 7.11271 14.7264 7.01147C14.5037 6.92502 14.1693 6.82207 13.5532 6.79405C12.8868 6.76366 12.687 6.75708 10.9998 6.75708C9.31246 6.75708 9.11266 6.76348 8.44639 6.79387C7.83033 6.82207 7.49565 6.92498 7.2732 7.01147C6.99869 7.11267 6.7504 7.2742 6.54662 7.48413C6.33672 7.68797 6.17516 7.93624 6.07378 8.21071C5.98734 8.43337 5.88439 8.76801 5.85636 9.38407C5.82597 10.0503 5.8194 10.2501 5.8194 11.9375C5.8194 13.6246 5.82597 13.8244 5.85636 14.4909C5.88439 15.1069 5.98734 15.4415 6.07378 15.6641C6.17509 15.9385 6.3366 16.1868 6.54645 16.3907C6.75025 16.6005 6.99854 16.7621 7.27303 16.8633C7.49569 16.9499 7.83033 17.0529 8.44639 17.0809C9.11266 17.1113 9.31228 17.1177 10.9996 17.1177C12.6871 17.1177 12.8869 17.1113 13.553 17.0809C14.1691 17.0529 14.5038 16.9499 14.7264 16.8633C14.9989 16.7582 15.2464 16.5972 15.453 16.3906C15.6595 16.1841 15.8205 15.9366 15.9256 15.6641C16.0121 15.4414 16.115 15.107 16.1432 14.4909C16.1736 13.8244 16.18 13.6246 16.18 11.9375C16.18 10.2501 16.1736 10.0503 16.1432 9.38407C16.1152 8.76801 16.0122 8.43333 15.9256 8.21071ZM10.9998 15.182C9.2077 15.182 7.75493 13.7294 7.75493 11.9373C7.75493 10.1452 9.2077 8.69261 10.9998 8.69261C12.7918 8.69261 14.2445 10.1452 14.2445 11.9373C14.2445 13.7294 12.7918 15.182 10.9998 15.182ZM14.3728 9.3226C13.954 9.3226 13.6145 8.98307 13.6145 8.56435C13.6145 8.14563 13.954 7.80605 14.3728 7.80605C14.7916 7.80605 15.1311 8.14554 15.1311 8.5643C15.1309 8.98307 14.7916 9.3226 14.3728 9.3226Z" fill="#AE2F37"/>
<path d="M11 0.933228C4.92348 0.933228 -0.00421143 5.86091 -0.00421143 11.9374C-0.00421143 18.0139 4.92348 22.9416 11 22.9416C17.0765 22.9416 22.0042 18.0139 22.0042 11.9374C22.0042 5.86091 17.0765 0.933228 11 0.933228ZM17.2807 14.5425C17.2502 15.2152 17.1432 15.6745 16.987 16.0764C16.8247 16.4962 16.5764 16.8774 16.2582 17.1956C15.9399 17.5139 15.5587 17.7621 15.139 17.9244C14.7372 18.0806 14.2778 18.1874 13.6053 18.2181C12.9315 18.2488 12.7162 18.2562 11.0002 18.2562C9.28393 18.2562 9.06883 18.2488 8.39483 18.2181C7.72237 18.1874 7.26298 18.0806 6.86112 17.9244C6.43944 17.7658 6.05747 17.5171 5.74187 17.1955C5.42046 16.8799 5.17177 16.498 5.01314 16.0764C4.85698 15.6746 4.75003 15.2152 4.71947 14.5427C4.68839 13.8687 4.68117 13.6535 4.68117 11.9374C4.68117 10.2214 4.68839 10.0061 4.7193 9.33231C4.74982 8.65963 4.85663 8.20042 5.0128 7.79843C5.17147 7.37678 5.42027 6.99485 5.74183 6.67931C6.05739 6.35779 6.43933 6.10903 6.86099 5.95041C7.26298 5.79424 7.72219 5.68747 8.39487 5.65673C9.06866 5.626 9.28393 5.61861 11 5.61861C12.716 5.61861 12.9313 5.626 13.6051 5.65686C14.2778 5.68747 14.737 5.79424 15.139 5.95024C15.5607 6.10895 15.9427 6.35774 16.2583 6.67927C16.5797 6.99487 16.8284 7.37681 16.987 7.79843C17.1433 8.20042 17.2501 8.65963 17.2808 9.33231C17.3116 10.0061 17.3188 10.2214 17.3188 11.9374C17.3188 13.6535 17.3116 13.8687 17.2807 14.5425Z" fill="#AE2F37"/>
</svg>
